<svg width="16" height="8" viewBox="0 0 16 8" fill="none" xmlns="http://www.w3.org/2000/svg">
<path d="M8 8C8.26118 8 8.5127 7.90608 8.68682 7.73533L15.7388 1.36606C15.9033 1.22092 16 1.02455 16 0.802561C16 0.350053 15.6034 0 15.0907 0C14.8489 0 14.6167 0.0853789 14.4426 0.230523L8.00967 6.04482L1.56711 0.230523C1.39299 0.0853789 1.1705 0 0.909311 0C0.396614 0 0 0.350053 0 0.802561C0 1.02455 0.0967352 1.22092 0.270859 1.3746L7.32285 7.73533C7.51632 7.90608 7.73881 8 8 8Z" fill="#000000"/>
</svg>
