<svg width="16" height="16" viewBox="0 0 16 16" fill="none" xmlns="http://www.w3.org/2000/svg">
<path d="M0.282554 15.7175C0.664579 16.0888 1.29068 16.0888 1.65148 15.7175L7.99735 9.37377L14.3432 15.7175C14.7146 16.0888 15.3407 16.0994 15.7121 15.7175C16.0836 15.3356 16.0942 14.7098 15.7228 14.3385L9.37688 7.9947L15.7228 1.66154C16.0942 1.29025 16.0942 0.653751 15.7121 0.28246C15.3301 -0.0888305 14.7146 -0.0888305 14.3432 0.28246L7.99735 6.62622L1.65148 0.28246C1.29068 -0.0888305 0.653967 -0.0994388 0.282554 0.28246C-0.08886 0.664359 -0.08886 1.29025 0.282554 1.66154L6.61781 7.9947L0.282554 14.3385C-0.08886 14.7098 -0.0994718 15.3462 0.282554 15.7175Z" fill="#000000"/>
</svg>
